<svg xmlns="http://www.w3.org/2000/svg" width="42" height="42" viewBox="0 0 42 42">
  <g id="Сгруппировать_4813" data-name="Сгруппировать 4813" transform="translate(-716 -43)">
    <rect id="Прямоугольник_1098" data-name="Прямоугольник 1098" width="42" height="42" rx="8" transform="translate(716 43)" fill="#2979ff"/>
    <g id="Сгруппировать_4809" data-name="Сгруппировать 4809" transform="translate(138)">
      <g id="Сгруппировать_4811" data-name="Сгруппировать 4811" transform="translate(-2 4)">
        <g id="Сгруппировать_4807" data-name="Сгруппировать 4807" transform="translate(586 48)">
          <g id="Эллипс_399" data-name="Эллипс 399" transform="translate(3 0)" fill="none" stroke="#fff" stroke-width="2">
            <circle cx="3.5" cy="3.5" r="3.5" stroke="none"/>
            <circle cx="3.5" cy="3.5" r="2.5" fill="none"/>
          </g>
        </g>
        <g id="Сгруппировать_4810" data-name="Сгруппировать 4810">
          <g id="Сгруппировать_4806" data-name="Сгруппировать 4806" transform="translate(131 -1159.958)">
            <path id="Контур_1783" data-name="Контур 1783" d="M-91.5-40.476v9.823h3.12a4.694,4.694,0,0,0,1.892-.386,5.076,5.076,0,0,0,1.56-1.05,5,5,0,0,0,1.066-1.56,4.705,4.705,0,0,0,.394-1.915,4.743,4.743,0,0,0-.394-1.931,5,5,0,0,0-1.066-1.56A4.941,4.941,0,0,0-86.495-40.1a4.793,4.793,0,0,0-1.884-.378Zm-3.274,19.8V-42.113a1.672,1.672,0,0,1,.124-.641,1.585,1.585,0,0,1,.348-.525,1.606,1.606,0,0,1,.517-.348,1.656,1.656,0,0,1,.649-.124h4.757a7.914,7.914,0,0,1,2.155.293,8.128,8.128,0,0,1,1.954.834,8.6,8.6,0,0,1,1.668,1.29,8.031,8.031,0,0,1,1.29,1.66,8.56,8.56,0,0,1,.834,1.954,7.724,7.724,0,0,1,.3,2.155A7.9,7.9,0,0,1-82.6-29.772a7.872,7.872,0,0,1-5.776,2.394H-91.5v6.7a1.578,1.578,0,0,1-.479,1.158,1.578,1.578,0,0,1-1.158.479,1.578,1.578,0,0,1-1.158-.479A1.578,1.578,0,0,1-94.773-20.675Z" transform="translate(563.676 1251.963)" fill="#fff"/>
          </g>
          <g id="Прямоугольник_1097" data-name="Прямоугольник 1097" transform="translate(589 72.967) rotate(-90)" fill="none" stroke="#fff" stroke-width="2">
            <rect width="16.263" height="7" rx="3.5" stroke="none"/>
            <rect x="1" y="1" width="14.263" height="5" rx="2.5" fill="none"/>
          </g>
        </g>
      </g>
    </g>
  </g>
</svg>
