<svg xmlns="http://www.w3.org/2000/svg" width="12.354" height="13.032" viewBox="0 0 12.354 13.032">
  <g id="bell" transform="translate(0.75 0.75)">
    <path id="Контур_2357" data-name="Контур 2357" d="M4.09,1.357H7.5A2.751,2.751,0,0,0,10.224,0V10.854A2.751,2.751,0,0,0,7.5,9.5H4.09A4.08,4.08,0,0,1,0,5.427H0A4.08,4.08,0,0,1,4.09,1.357Z" transform="translate(10.854 0) rotate(90)" fill="#2979ff" stroke="#2979ff" stroke-linecap="round" stroke-linejoin="round" stroke-width="1.5"/>
    <path id="Контур_2358" data-name="Контур 2358" d="M0,2.616A1.308,1.308,0,0,0,1.308,1.308,1.308,1.308,0,0,0,0,0" transform="translate(6.735 10.224) rotate(90)" fill="#2979ff" stroke="#2979ff" stroke-linecap="round" stroke-linejoin="round" stroke-width="1.5"/>
  </g>
</svg>
