<svg xmlns="http://www.w3.org/2000/svg" width="16.167" height="20.5" viewBox="0 0 16.167 20.5">
  <g id="Сгруппировать_3985" data-name="Сгруппировать 3985" transform="translate(-13.75 -12.75)">
    <g id="_149345" data-name="149345" transform="translate(7.5 13)">
      <path id="Контур_2197" data-name="Контур 2197" d="M25.153,22h-8.32a.334.334,0,0,0,0,.668h8.32a.334.334,0,0,0,0-.668Z" transform="translate(-6.659 -14.667)" fill="#fff" stroke="#fff" stroke-width="0.5"/>
      <path id="Контур_2198" data-name="Контур 2198" d="M16.834,14.668h3.341a.334.334,0,1,0,0-.668H16.834a.334.334,0,1,0,0,.668Z" transform="translate(-6.669 -9.334)" fill="#fff" stroke="#fff" stroke-width="0.5"/>
      <path id="Контур_2199" data-name="Контур 2199" d="M25.153,30h-8.32a.334.334,0,0,0,0,.668h8.32a.334.334,0,0,0,0-.668Z" transform="translate(-6.659 -20.001)" fill="#fff" stroke="#fff" stroke-width="0.5"/>
      <path id="Контур_2200" data-name="Контур 2200" d="M25.153,38h-8.32a.334.334,0,0,0,0,.668h8.32a.334.334,0,0,0,0-.668Z" transform="translate(-6.659 -25.334)" fill="#fff" stroke="#fff" stroke-width="0.5"/>
      <path id="Контур_2201" data-name="Контур 2201" d="M25.153,46h-8.32a.334.334,0,0,0,0,.668h8.32a.334.334,0,0,0,0-.668Z" transform="translate(-6.659 -30.668)" fill="#fff" stroke="#fff" stroke-width="0.5"/>
      <path id="Контур_2202" data-name="Контур 2202" d="M17.3,0H6.5V20H22.167V4.862Zm.2,1.138,3.529,3.529H17.5ZM7.167,19.333V.667h9.667V5.333H21.5v14Z" fill="#fff" stroke="#fff" stroke-width="0.5"/>
    </g>
  </g>
</svg>
