<svg xmlns="http://www.w3.org/2000/svg" width="20" height="7.42" viewBox="0 0 20 7.42"><path d="M12.271,9.766V8.1a7.069,7.069,0,0,1-1.216-.18,8.919,8.919,0,0,1-1.491-.506,11.518,11.518,0,0,1-1.279-.661L7.211,8.177a.346.346,0,1,1-.552-.417L7.7,6.381q-.363-.242-.727-.516A17.879,17.879,0,0,1,5.15,4.283c-.133-.133-.251-.254-.351-.36L4.774,3.9,4.767,3.89c-.145-.154-.251-.272-.312-.342L3.242,4.6a.346.346,0,1,1-.454-.522L4.213,2.842a.346.346,0,0,1,.54-.022l.454.522c.224.238.568.588,1.007.985A16.479,16.479,0,0,0,7.949,5.7a11.3,11.3,0,0,0,2.206,1.2,7.588,7.588,0,0,0,1.216.374,5.95,5.95,0,0,0,1.256.14,6.018,6.018,0,0,0,1.264-.14A7.706,7.706,0,0,0,15.113,6.9a11.391,11.391,0,0,0,2.214-1.208,16.642,16.642,0,0,0,1.735-1.381c.228-.207.43-.4.6-.572a.35.35,0,0,1,.04-.05l.858-.889a.411.411,0,0,1,.517-.022l1.466,1.231a.346.346,0,0,1-.445.53L20.855,3.49l-.06.062c-.108.123-.347.39-.692.731a17.774,17.774,0,0,1-1.821,1.582q-.371.28-.743.526L18.6,7.745a.346.346,0,0,1-.545.426l-1.1-1.41a11.5,11.5,0,0,1-1.261.65,8.919,8.919,0,0,1-1.491.506,7.057,7.057,0,0,1-1.238.182V9.766a.346.346,0,0,1-.691,0Z" transform="translate(-2.669 -2.691)" fill="#9e9e9e"/></svg>