<svg id="Компонент_30_16" data-name="Компонент 30 – 16" xmlns="http://www.w3.org/2000/svg" width="76" height="75" viewBox="0 0 76 75">
  <rect id="Прямоугольник_993" data-name="Прямоугольник 993" width="76" height="75" rx="5" fill="#e3f2fd"/>
  <g id="_1150873" data-name="1150873" transform="translate(21.832 14.999)">
    <path id="Контур_2185" data-name="Контур 2185" d="M171.933,33.026H160.765a.751.751,0,1,0,0,1.5h11.168a2.314,2.314,0,0,0,2.342-2.282V9.766a.75.75,0,0,0-.182-.491L166.3.261A.748.748,0,0,0,165.733,0H148.845A2.313,2.313,0,0,0,146.5,2.283V20.267a.751.751,0,0,0,1.5,0V2.283a.813.813,0,0,1,.84-.78h15.617l.056,7.893a1.881,1.881,0,0,0,1.876,1.864h6.38V32.246A.814.814,0,0,1,171.933,33.026ZM166.019,9.383l-.049-7.216,6.556,7.591h-6.132A.375.375,0,0,1,166.019,9.383Zm0,0" transform="translate(-138.857)" fill="#212121"/>
    <path id="Контур_2186" data-name="Контур 2186" d="M6.55,342.517H10.3a1.877,1.877,0,0,0,1.876-1.877v-5.629h5.629a1.876,1.876,0,0,0,1.876-1.877v-3.753a1.876,1.876,0,0,0-1.876-1.877H12.179v-5.629A1.876,1.876,0,0,0,10.3,320H6.55a1.876,1.876,0,0,0-1.876,1.876v5.629H-.956a1.877,1.877,0,0,0-1.877,1.877v3.753a1.877,1.877,0,0,0,1.877,1.877H4.674v5.629A1.877,1.877,0,0,0,6.55,342.517Zm-7.881-9.382v-3.753a.375.375,0,0,1,.375-.375h6.38a.751.751,0,0,0,.751-.751v-6.38a.375.375,0,0,1,.375-.375H10.3a.375.375,0,0,1,.375.375v6.38a.751.751,0,0,0,.75.751h6.38a.375.375,0,0,1,.375.375v3.753a.375.375,0,0,1-.375.375h-6.38a.751.751,0,0,0-.75.751v6.379a.375.375,0,0,1-.375.375H6.55a.375.375,0,0,1-.375-.375v-6.379a.751.751,0,0,0-.751-.751H-.956A.375.375,0,0,1-1.331,333.135Zm0,0" transform="translate(0 -297.516)" fill="#212121"/>
  </g>
</svg>
