<svg xmlns="http://www.w3.org/2000/svg" width="118.225" height="24.967" viewBox="0 0 118.225 24.967">
  <g id="Сгруппировать_4808" data-name="Сгруппировать 4808" transform="translate(-589 -48)">
    <g id="Сгруппировать_4806" data-name="Сгруппировать 4806" transform="translate(133 -1159.958)">
      <path id="Контур_1783" data-name="Контур 1783" d="M-91.5-40.476v9.823h3.12a4.694,4.694,0,0,0,1.892-.386,5.076,5.076,0,0,0,1.56-1.05,5,5,0,0,0,1.066-1.56,4.705,4.705,0,0,0,.394-1.915,4.743,4.743,0,0,0-.394-1.931,5,5,0,0,0-1.066-1.56A4.941,4.941,0,0,0-86.495-40.1a4.793,4.793,0,0,0-1.884-.378Zm-3.274,19.8V-42.113a1.672,1.672,0,0,1,.124-.641,1.585,1.585,0,0,1,.348-.525,1.606,1.606,0,0,1,.517-.348,1.656,1.656,0,0,1,.649-.124h4.757a7.914,7.914,0,0,1,2.155.293,8.128,8.128,0,0,1,1.954.834,8.6,8.6,0,0,1,1.668,1.29,8.031,8.031,0,0,1,1.29,1.66,8.56,8.56,0,0,1,.834,1.954,7.724,7.724,0,0,1,.3,2.155A7.9,7.9,0,0,1-82.6-29.772a7.872,7.872,0,0,1-5.776,2.394H-91.5v6.7a1.578,1.578,0,0,1-.479,1.158,1.578,1.578,0,0,1-1.158.479,1.578,1.578,0,0,1-1.158-.479A1.578,1.578,0,0,1-94.773-20.675Zm19.97-19.8v8.634h4.325a4.2,4.2,0,0,0,1.683-.34,4.219,4.219,0,0,0,1.367-.934,4.564,4.564,0,0,0,.919-1.375,4.112,4.112,0,0,0,.34-1.66,4.2,4.2,0,0,0-.34-1.683,4.372,4.372,0,0,0-.927-1.375,4.372,4.372,0,0,0-1.375-.927,4.167,4.167,0,0,0-1.668-.34Zm-3.274,19.8V-42.113a1.672,1.672,0,0,1,.124-.641,1.585,1.585,0,0,1,.348-.525,1.606,1.606,0,0,1,.517-.348,1.655,1.655,0,0,1,.649-.124h5.962a7.285,7.285,0,0,1,2.942.6,7.682,7.682,0,0,1,2.409,1.637A7.843,7.843,0,0,1-63.5-39.093a7.285,7.285,0,0,1,.6,2.942,7.742,7.742,0,0,1-.255,1.985,7.254,7.254,0,0,1-.757,1.823,7.6,7.6,0,0,1-1.251,1.591,8.238,8.238,0,0,1-1.738,1.29l4.927,7.892a1.7,1.7,0,0,1,.263.9,1.655,1.655,0,0,1-.124.649,1.606,1.606,0,0,1-.348.517,1.585,1.585,0,0,1-.525.348,1.672,1.672,0,0,1-.641.124,1.632,1.632,0,0,1-1.405-.8L-70.2-28.568h-4.6v7.892a1.578,1.578,0,0,1-.479,1.158,1.578,1.578,0,0,1-1.158.479,1.578,1.578,0,0,1-1.158-.479A1.578,1.578,0,0,1-78.078-20.675Zm29.967-19.8a8.956,8.956,0,0,0-3.5.664A9.133,9.133,0,0,0-54.536-37.8a9.051,9.051,0,0,0-2,2.919,8.991,8.991,0,0,0-.656,3.491,8.753,8.753,0,0,0,2.657,6.425,8.753,8.753,0,0,0,6.425,2.657,8.753,8.753,0,0,0,6.425-2.657,8.753,8.753,0,0,0,2.657-6.425,8.735,8.735,0,0,0-2.657-6.41A8.76,8.76,0,0,0-48.111-40.476Zm12.356,9.082a11.916,11.916,0,0,1-3.63,8.742,11.89,11.89,0,0,1-8.726,3.614,11.908,11.908,0,0,1-8.742-3.614,11.908,11.908,0,0,1-3.614-8.742,11.89,11.89,0,0,1,3.614-8.726,11.916,11.916,0,0,1,8.742-3.63,11.9,11.9,0,0,1,8.726,3.63,12.375,12.375,0,0,1,2.726,3.985A12.178,12.178,0,0,1-35.755-31.394Zm2.409,10.719V-42.113a1.672,1.672,0,0,1,.124-.641,1.585,1.585,0,0,1,.348-.525,1.606,1.606,0,0,1,.517-.348,1.656,1.656,0,0,1,.649-.124h14.286a1.578,1.578,0,0,1,1.158.479,1.578,1.578,0,0,1,.479,1.158,1.578,1.578,0,0,1-.479,1.158,1.578,1.578,0,0,1-1.158.479H-30.071v7.444h9.082a1.578,1.578,0,0,1,1.158.479,1.578,1.578,0,0,1,.479,1.158,1.578,1.578,0,0,1-.479,1.158,1.578,1.578,0,0,1-1.158.479h-9.082v9.082a1.578,1.578,0,0,1-.479,1.158,1.578,1.578,0,0,1-1.158.479,1.578,1.578,0,0,1-1.158-.479A1.578,1.578,0,0,1-33.345-20.675Zm19.769,0V-42.113a1.672,1.672,0,0,1,.124-.641,1.585,1.585,0,0,1,.348-.525,1.606,1.606,0,0,1,.517-.348,1.656,1.656,0,0,1,.649-.124H2.348a1.578,1.578,0,0,1,1.158.479,1.578,1.578,0,0,1,.479,1.158,1.578,1.578,0,0,1-.479,1.158,1.578,1.578,0,0,1-1.158.479H-10.3v7.444H-1.22a1.578,1.578,0,0,1,1.158.479,1.578,1.578,0,0,1,.479,1.158,1.578,1.578,0,0,1-.479,1.158,1.578,1.578,0,0,1-1.158.479H-10.3v9.082a1.578,1.578,0,0,1-.479,1.158,1.578,1.578,0,0,1-1.158.479,1.578,1.578,0,0,1-1.158-.479A1.578,1.578,0,0,1-13.576-20.675Zm24.125,0a1.578,1.578,0,0,1-.479,1.158,1.578,1.578,0,0,1-1.158.479,1.578,1.578,0,0,1-1.158-.479,1.578,1.578,0,0,1-.479-1.158V-42.113a1.578,1.578,0,0,1,.479-1.158,1.578,1.578,0,0,1,1.158-.479,1.578,1.578,0,0,1,1.158.479,1.578,1.578,0,0,1,.479,1.158Z" transform="translate(563.676 1251.963)" fill="#212121"/>
    </g>
    <g id="Сгруппировать_4812" data-name="Сгруппировать 4812">
      <g id="Сгруппировать_4807" data-name="Сгруппировать 4807" transform="translate(586 48)">
        <g id="Эллипс_399" data-name="Эллипс 399" transform="translate(3 0)" fill="none" stroke="#3b7bf6" stroke-width="2">
          <circle cx="3.5" cy="3.5" r="3.5" stroke="none"/>
          <circle cx="3.5" cy="3.5" r="2.5" fill="none"/>
        </g>
      </g>
      <g id="Прямоугольник_1097" data-name="Прямоугольник 1097" transform="translate(589 72.967) rotate(-90)" fill="none" stroke="#3b7bf6" stroke-width="2">
        <rect width="16.263" height="7" rx="3.5" stroke="none"/>
        <rect x="1" y="1" width="14.263" height="5" rx="2.5" fill="none"/>
      </g>
    </g>
  </g>
</svg>
