<svg xmlns="http://www.w3.org/2000/svg" width="20" height="11.667" viewBox="0 0 20 11.667"><g transform="translate(0 -106.662)"><g transform="translate(0 106.662)"><g transform="translate(0)"><path d="M19.926,112.259c-.158-.229-3.943-5.6-9.926-5.6-5.134,0-9.709,5.337-9.9,5.564a.418.418,0,0,0,0,.538c.193.228,4.768,5.564,9.9,5.564s9.709-5.337,9.9-5.564A.417.417,0,0,0,19.926,112.259ZM10,117.5c-4.116,0-8.029-3.925-9.023-5,.993-1.076,4.9-5,9.023-5,4.816,0,8.215,3.919,9.045,4.978C18.087,113.514,14.151,117.5,10,117.5Z" transform="translate(0 -106.662)" fill="#2979ff"/></g></g><g transform="translate(6.571 109.066)"><g transform="translate(0 0)"><path d="M174.091,170.662a3.429,3.429,0,1,0,3.429,3.429A3.433,3.433,0,0,0,174.091,170.662Zm0,6a2.572,2.572,0,1,1,2.572-2.572A2.575,2.575,0,0,1,174.091,176.664Z" transform="translate(-170.662 -170.662)" fill="#2979ff"/></g></g></g></svg>